<?xml version="1.0" encoding="UTF-8" standalone="no"?>
<svg width="23px" height="20px" viewBox="0 0 23 20" version="1.1" xmlns="http://www.w3.org/2000/svg" xmlns:xlink="http://www.w3.org/1999/xlink">
    <!-- Generator: Sketch 3.8.1 (29687) - http://www.bohemiancoding.com/sketch -->
    <title>skinpay</title>
    <desc>Created with Sketch.</desc>
    <defs></defs>
    <g id="Page-1" stroke="none" stroke-width="1" fill="none" fill-rule="evenodd">
        <g id="Landing" transform="translate(-797.000000, -4649.000000)" fill="#FFFFFF">
            <g id="Материалы" transform="translate(330.000000, 4308.000000)">
                <g id="Логотип" transform="translate(451.000000, 323.000000)">
                    <g id="skinpay" transform="translate(16.000000, 18.000000)">
                        <g id="Слой_1">
                            <g id="Group">
                                <path d="M16.12875,19.9280576 L16.12875,19.9280576 L4.528125,19.9280576 C3.93875,19.9280576 3.45,19.4388489 3.45,18.8489209 C3.45,18.2589928 3.93875,17.7697842 4.528125,17.7697842 L16.12875,17.7697842 L16.12875,17.7697842 C17.365,17.7697842 18.529375,17.2805755 19.420625,16.3884892 C20.2975,15.5107914 20.771875,14.3453237 20.771875,13.1223022 C20.7575,10.6330935 18.701875,8.57553957 16.18625,8.54676259 L8.99875,8.48920863 C8.409375,8.48920863 7.920625,8 7.935,7.39568345 C7.935,6.8057554 8.42375,6.33093525 9.013125,6.33093525 L9.0275,6.33093525 L16.215,6.38848921 C19.895,6.43165468 22.91375,9.45323741 22.928125,13.1079137 C22.9425,14.9064748 22.238125,16.6043165 20.95875,17.8992806 C19.650625,19.2086331 17.94,19.9280576 16.12875,19.9280576 L16.12875,19.9280576 Z" id="Shape"></path>
                                <path d="M13.929375,13.7122302 C13.915,13.7122302 13.915,13.7122302 13.929375,13.7122302 L6.7275,13.6546763 C3.0475,13.6115108 0.02875,10.5899281 0.014375,6.9352518 C-1.89091798e-13,5.13669065 0.704375,3.43884892 1.98375,2.14388489 C3.2775,0.848920863 4.988125,0.129496403 6.799375,0.129496403 L6.799375,0.129496403 L18.4,0.129496403 C18.989375,0.129496403 19.478125,0.618705036 19.478125,1.20863309 C19.478125,1.79856115 18.989375,2.28776978 18.4,2.28776978 L6.799375,2.28776978 L6.799375,2.28776978 C5.563125,2.28776978 4.39875,2.77697842 3.5075,3.66906475 C2.630625,4.54676259 2.15625,5.71223022 2.15625,6.9352518 C2.170625,9.42446043 4.22625,11.4820144 6.741875,11.5107914 L13.929375,11.5683453 C14.51875,11.5683453 15.0075,12.057554 14.993125,12.6618705 C14.993125,13.2374101 14.51875,13.7122302 13.929375,13.7122302 L13.929375,13.7122302 Z" id="Shape"></path>
                                <path d="M11.5,16.3309353 C11.226875,16.3309353 10.95375,16.2302158 10.738125,16.0143885 C10.32125,15.5971223 10.32125,14.9064748 10.738125,14.4892086 L13.354375,11.8705036 C13.77125,11.4532374 14.46125,11.4532374 14.878125,11.8705036 C15.295,12.2877698 15.295,12.9784173 14.878125,13.3956835 L12.261875,16.0143885 C12.04625,16.2158273 11.773125,16.3309353 11.5,16.3309353 L11.5,16.3309353 Z" id="Shape"></path>
                                <path d="M8.88375,8.47482014 C8.610625,8.47482014 8.3375,8.37410072 8.121875,8.15827338 C7.705,7.74100719 7.705,7.05035971 8.121875,6.63309353 L10.738125,4.01438849 C11.155,3.5971223 11.845,3.5971223 12.261875,4.01438849 C12.67875,4.43165468 12.67875,5.12230216 12.261875,5.53956835 L9.645625,8.15827338 C9.43,8.37410072 9.156875,8.47482014 8.88375,8.47482014 L8.88375,8.47482014 Z" id="Shape"></path>
                            </g>
                        </g>
                    </g>
                </g>
            </g>
        </g>
    </g>
</svg>